<?xml version="1.0" encoding="utf-8"?>
<!-- Generator: Adobe Illustrator 24.0.1, SVG Export Plug-In . SVG Version: 6.00 Build 0)  -->
<svg version="1.1" id="图层_1" xmlns="http://www.w3.org/2000/svg" xmlns:xlink="http://www.w3.org/1999/xlink" x="0px" y="0px"
	 viewBox="0 0 343.3 81" style="enable-background:new 0 0 343.3 81;" xml:space="preserve">
<style type="text/css">
	.st0{fill-rule:evenodd;clip-rule:evenodd;fill:#FFFFFF;}
	.st1{fill-rule:evenodd;clip-rule:evenodd;fill:#0C9898;}
</style>
<path class="st0" d="M80.2,23L48.3,54.9c-1.6,1.6-3.5,2.5-5.5,2.5s-3.8-0.8-5.4-2.5c-1.6-1.6-2.5-3.5-2.5-5.5s0.8-3.7,2.5-5.4
	l31.9-31.9c1.6-1.6,3.5-2.5,5.5-2.5s3.7,0.8,5.4,2.5c1.7,1.6,2.5,3.5,2.5,5.5S81.9,21.4,80.2,23z M27.2,63.8c0,2.3-0.7,4.2-2.1,5.6
	s-3.3,2.1-5.6,2.1s-4.2-0.7-5.6-2.1s-2.1-3.3-2.1-5.6V17.4c0-2.3,0.7-4.2,2.1-5.6s3.3-2.1,5.6-2.1s4.2,0.7,5.6,2.1s2.1,3.3,2.1,5.6
	V63.8z"/>
<path class="st1" d="M120.1,23L88.2,54.9c-1.6,1.6-3.5,2.5-5.5,2.5s-3.8-0.8-5.4-2.5c-1.6-1.6-2.5-3.5-2.5-5.5s0.9-3.7,2.5-5.4
	l31.9-31.9c1.6-1.6,3.5-2.5,5.5-2.5s3.8,0.8,5.4,2.5s2.5,3.5,2.5,5.5S121.8,21.4,120.1,23z M67.1,63.8c0,2.3-0.7,4.2-2.1,5.6
	s-3.3,2.1-5.6,2.1s-4.2-0.7-5.6-2.1c-1.4-1.4-2.1-3.3-2.1-5.6V17.4c0-2.3,0.7-4.2,2.1-5.6c1.4-1.4,3.3-2.1,5.6-2.1s4.2,0.7,5.6,2.1
	c1.4,1.4,2.1,3.3,2.1,5.6V63.8z"/>
<path class="st0" d="M167.6,47.6c0,1.6-0.5,2.9-1.5,3.9s-2.3,1.5-3.9,1.5h-17.3c-1.6,0-2.9-0.5-3.9-1.5s-1.5-2.3-1.5-3.9
	c0-1.6,0.5-2.9,1.5-3.9s2.3-1.5,3.9-1.5h17.3c1.6,0,2.9,0.5,3.9,1.5S167.6,46,167.6,47.6z M173,63.8c0,1.6-0.5,2.9-1.5,3.9
	s-2.3,1.5-3.9,1.5h-38.9c-1.6,0-2.9-0.5-3.9-1.5s-1.5-2.3-1.5-3.9V31.4c0-1.6,0.5-2.9,1.5-3.9s2.3-1.5,3.9-1.5h38.9
	c1.6,0,2.9,0.5,3.9,1.5s1.5,2.3,1.5,3.9s-0.5,2.9-1.5,3.9s-2.3,1.5-3.9,1.5h-30.8c-1.8,0-2.7,0.9-2.7,2.7v16.2
	c0,1.8,0.9,2.7,2.7,2.7h30.8c1.6,0,2.9,0.5,3.9,1.5S173,62.2,173,63.8z M229.8,31.4c0,1.6-0.5,2.9-1.5,3.9s-2.3,1.5-3.9,1.5h-22.7
	c-1.6,0-2.9-0.5-3.9-1.5s-1.5-2.3-1.5-3.9s0.5-2.9,1.5-3.9s2.3-1.5,3.9-1.5h22.7c1.6,0,2.9,0.5,3.9,1.5S229.8,29.8,229.8,31.4z
	 M229.8,63.8c0,1.6-0.5,2.9-1.5,3.9s-2.3,1.5-3.9,1.5h-38.9c-1.6,0-2.9-0.5-3.9-1.5s-1.5-2.3-1.5-3.9V31.4c0-1.6,0.5-2.9,1.5-3.9
	s2.3-1.5,3.9-1.5c1.6,0,2.9,0.5,3.9,1.5s1.5,2.3,1.5,3.9v24.3c0,1.8,0.9,2.7,2.7,2.7h30.8c1.6,0,2.9,0.5,3.9,1.5
	C229.3,60.9,229.8,62.2,229.8,63.8z M286.5,47.6c0,1.6-0.5,2.9-1.5,3.9s-2.3,1.5-3.9,1.5s-2.9-0.5-3.9-1.5s-1.5-2.3-1.5-3.9v-8.1
	c0-1.8-0.9-2.7-2.7-2.7h-14.6c-1.6,0-2.9-0.5-3.9-1.5S253,33,253,31.4s0.5-2.9,1.5-3.9s2.3-1.5,3.9-1.5h22.7c1.6,0,2.9,0.5,3.9,1.5
	s1.5,2.3,1.5,3.9V47.6z M286.5,63.8c0,1.6-0.5,2.9-1.5,3.9s-2.3,1.5-3.9,1.5h-38.9c-1.6,0-2.9-0.5-3.9-1.5s-1.5-2.3-1.5-3.9V31.4
	c0-1.6,0.5-2.9,1.5-3.9s2.3-1.5,3.9-1.5c1.6,0,2.9,0.5,3.9,1.5s1.5,2.3,1.5,3.9v24.3c0,1.8,0.9,2.7,2.7,2.7h30.8
	c1.6,0,2.9,0.5,3.9,1.5C286,60.9,286.5,62.2,286.5,63.8z M343.3,63.8c0,1.6-0.5,2.9-1.5,3.9s-2.3,1.5-3.9,1.5s-2.9-0.5-3.9-1.5
	l-22.5-22.5c-1.2-1.2-1.7-2.4-1.7-3.9c0-1.4,0.6-2.7,1.7-3.8s2.4-1.7,3.8-1.7s2.7,0.6,3.8,1.7L332.5,51V31.4c0-1.6,0.5-2.9,1.5-3.9
	s2.3-1.5,3.9-1.5s2.9,0.5,3.9,1.5s1.5,2.3,1.5,3.9V63.8z M304.4,63.8c0,1.6-0.5,2.9-1.5,3.9s-2.3,1.5-3.9,1.5s-2.9-0.5-3.9-1.5
	s-1.5-2.3-1.5-3.9V31.4c0-1.6,0.5-2.9,1.5-3.9s2.3-1.5,3.9-1.5s2.9,0.5,3.9,1.5s1.5,2.3,1.5,3.9V63.8z"/>
</svg>
